<svg xmlns="http://www.w3.org/2000/svg" width="1083" height="758.561" viewBox="0 0 1083 758.561">
  <g id="contact" transform="translate(0 0)">
    <circle id="Ellipse_3" data-name="Ellipse 3" cx="350.304" cy="350.304" r="350.304" transform="translate(55.859 39.24)" fill="#f2f2f2"/>
    <path id="Path_51" data-name="Path 51" d="M521.7,514.364c-77.414,118.718-56.2,269.712-56.2,269.712s146.725-41.486,224.139-160.2,56.2-269.712,56.2-269.712S599.117,395.646,521.7,514.364Z" transform="translate(-58.5 -70.719)" fill="#3f3d56"/>
    <path id="Path_52" data-name="Path 52" d="M465.089,782.7s-1.885-.3-5.353-1c-2.767-.561-6.576-1.363-11.227-2.466-41.581-9.8-152.129-42.944-224.4-130.075-90.459-109.1-86.65-261.534-86.65-261.534S275.77,410.093,366.911,508.071q5.924,6.315,11.528,13.092c78.711,94.93,86.049,222.66,86.63,254.236C465.149,780.13,465.089,782.7,465.089,782.7Z" transform="translate(-58.5 -70.719)" fill="#6c6ce5"/>
    <path id="Path_53" data-name="Path 53" d="M409.3,514.364c77.414,118.718,56.2,269.712,56.2,269.712s-146.725-41.486-224.139-160.2-56.2-269.712-56.2-269.712S331.884,395.646,409.3,514.364Z" transform="translate(-58.5 -70.719)" fill="none" stroke="#3f3d56" stroke-miterlimit="10" stroke-width="2"/>
    <path id="Path_54" data-name="Path 54" d="M465.069,775.4c-2.045,2.466-3.849,4.571-5.333,6.3-3.288,3.749-5.152,5.714-5.152,5.714s-2.265-2.847-6.075-8.18c-20.911-29.151-88.174-132.8-82.981-252.532q.421-9.413,1.383-18.625,5.924,6.315,11.528,13.092C457.149,616.092,464.487,743.822,465.069,775.4Z" transform="translate(-58.5 -70.719)" opacity="0.1"/>
    <path id="Path_55" data-name="Path 55" d="M579.853,535.354c-6.119,141.6-111.229,252.055-111.229,252.055S373.435,668.295,379.554,526.7,490.783,274.643,490.783,274.643,585.972,393.757,579.853,535.354Z" transform="translate(-58.5 -70.719)" fill="#6c6ce5"/>
    <line id="Line_1" data-name="Line 1" y1="502.981" x2="23.108" transform="translate(410.125 209.699)" fill="none" stroke="#3f3d56" stroke-miterlimit="10" stroke-width="2"/>
    <ellipse id="Ellipse_4" data-name="Ellipse 4" cx="541.5" cy="33.469" rx="541.5" ry="33.469" transform="translate(0 691.623)" fill="#3f3d56"/>
    <path id="Path_58" data-name="Path 58" d="M929.794,353.323l-22.825,43.016S741.927,427.943,763,477.1,807.768,598.253,820.058,596.5s79.887-40.383,82.521-51.8-60.574-64.963-60.574-64.963l104.468-20.191s14.924,70.231-4.389,118.514-30.726,179.088-17.558,180.844,46.528,12.29,61.452,2.634,21.947-221.227,21.947-221.227,31.6-138.706,12.29-154.508S929.794,353.323,929.794,353.323Z" transform="translate(-58.5 -70.719)" fill="#353353"/>
    <path id="Path_59" data-name="Path 59" d="M965.661,737.577s-20.173-10.617-24.42-2.123c0,0,3.185,25.482-9.556,28.667s-18.049,25.482,0,27.605,29.729-4.247,36.1-4.247,0-22.3,0-22.3Z" transform="translate(-58.5 -70.719)" fill="#2f2e41"/>
    <path id="Path_60" data-name="Path 60" d="M869.445,561.343s-21.958-6.124-24.319,3.074c0,0,8.487,24.237-3.3,30.037s-12.27,28.715,5.822,26.984,28.164-10.421,34.392-11.764-4.7-21.795-4.7-21.795Z" transform="translate(-58.5 -70.719)" fill="#2f2e41"/>
    <path id="Path_61" data-name="Path 61" d="M978.516,201.888s.878,32.482-5.267,35.115,34.237,18.436,34.237,18.436l7.023-12.29s-7.9-43.894-6.145-47.406S978.516,201.888,978.516,201.888Z" transform="translate(-58.5 -70.719)" fill="#ffd47e"/>
    <circle id="Ellipse_7" data-name="Ellipse 7" cx="53.826" cy="53.826" r="53.826" transform="translate(880.839 30.901)" fill="#2f2e41"/>
    <circle id="Ellipse_8" data-name="Ellipse 8" cx="22.273" cy="22.273" r="22.273" transform="translate(916.104 12.064)" fill="#2f2e41"/>
    <path id="Path_62" data-name="Path 62" d="M967.18,92.992A22.275,22.275,0,0,1,987.132,70.84a22.52,22.52,0,0,0-2.319-.121,22.273,22.273,0,1,0,0,44.546,22.52,22.52,0,0,0,2.32-.12A22.275,22.275,0,0,1,967.18,92.992Z" transform="translate(-58.5 -70.719)" fill="#2f2e41"/>
    <circle id="Ellipse_9" data-name="Ellipse 9" cx="36.871" cy="36.871" r="36.871" transform="translate(896.314 74.107)" fill="#ffd47e"/>
    <path id="Path_63" data-name="Path 63" d="M1017.58,229.542s-31.6,9.657-47.406,0-53.551,18.436-59.7,30.726S933.3,284.849,933.3,284.849s-8.273,23.734-6.584,35.554c1.756,12.29-1.317,37.31-1.317,37.31s77.557,51.1,94.811,28.092c2.634-3.512,24.581-86.033,24.581-86.033l30.726-30.726s-19.313-28.092-30.726-30.726S1017.58,229.542,1017.58,229.542Z" transform="translate(-58.5 -70.719)" fill="#d0cde1"/>
    <path id="Path_64" data-name="Path 64" d="M805.573,409.947s-59.7,30.726-47.406,39.5,62.33-34.238,62.33-34.238Z" transform="translate(-58.5 -70.719)" fill="#ffd47e"/>
    <path id="Path_65" data-name="Path 65" d="M1039.97,388s-26.562-17.934-30.839-8.967,29.083,29.158,36.106,21.257S1039.97,388,1039.97,388Z" transform="translate(-58.5 -70.719)" fill="#ffd47e"/>
    <path id="Path_66" data-name="Path 66" d="M1059.72,259.39l15.8,9.657s53.551,73.742,35.115,90.422-65.841,50.039-65.841,50.039-15.8-22.825-10.535-23.7,47.406-35.993,47.406-35.993L1044.8,281.337Z" transform="translate(-58.5 -70.719)" fill="#d0cde1"/>
    <path id="Path_67" data-name="Path 67" d="M921.015,255.878,909.6,260.267l-29.848,53.551-79.01,95.689s10.535,16.68,19.313,13.168,74.62-77.254,74.62-77.254L937.695,278.7Z" transform="translate(-58.5 -70.719)" fill="#d0cde1"/>
    <ellipse id="Ellipse_10" data-name="Ellipse 10" cx="37.122" cy="22.273" rx="37.122" ry="22.273" transform="translate(897.543 44.897)" fill="#2f2e41"/>
    <rect id="Rectangle_22" data-name="Rectangle 22" width="173" height="173" transform="translate(685 543.238)" fill="#6c6ce5"/>
    <path id="Path_68" data-name="Path 68" d="M893.5,693.264c0,24.507-11.476,39.952-29.633,39.952-9.294,0-16.371-4.961-17.595-12.336h-1.323c-3.274,7.673-10.021,11.873-19.083,11.873-16.14,0-26.921-12.932-26.921-32.18,0-18.488,10.848-31.353,26.69-31.353,8.136,0,15.048,4.1,18.091,10.815h1.323v-9.194h13.2V713.6c0,5.325,2.943,8.533,8.235,8.533,9.161,0,14.982-11.112,14.982-28.377,0-27.55-20.638-45.971-51.131-45.971-30.162,0-51.66,21.994-51.66,53.115,0,31.816,21.266,52.123,54.372,52.123a100.393,100.393,0,0,0,17.992-1.521,5.23,5.23,0,0,1,2.216,10.22,92.424,92.424,0,0,1-20.737,2.249c-40.25-.033-66.013-24.9-66.013-63.5,0-37.67,26.293-63.533,64.625-63.533C867.968,636.94,893.5,659.926,893.5,693.264Zm-80.3,7.607c0,12.237,5.755,19.645,15.114,19.645,9.856,0,16.073-7.607,16.073-19.645s-6.218-19.48-15.908-19.48c-9.625,0-15.28,7.209-15.28,19.479Z" transform="translate(-58.5 -70.719)" fill="#fff"/>
  </g>
</svg>
