<svg xmlns="http://www.w3.org/2000/svg" width="274.5" height="40.933" viewBox="0 0 274.5 40.933">
  <g id="p6" transform="translate(-1427 -807.751)">
    <path id="Path_49" data-name="Path 49" d="M1429.5,810.251c19.248,0,19.248,35.933,38.493,35.933s19.25-35.933,38.5-35.933,19.25,35.933,38.5,35.933,19.247-35.933,38.5-35.933,19.25,35.933,38.5,35.933,19.26-35.933,38.508-35.933,19.252,35.933,38.505,35.933" fill="none" stroke="#ff4c60" stroke-linecap="round" stroke-linejoin="round" stroke-width="5"/>
    <path id="Path_50" data-name="Path 50" d="M1429.5,810.251c19.248,0,19.248,35.933,38.493,35.933s19.25-35.933,38.5-35.933,19.25,35.933,38.5,35.933,19.247-35.933,38.5-35.933,19.25,35.933,38.5,35.933,19.26-35.933,38.508-35.933,19.252,35.933,38.505,35.933" fill="none" stroke="#ff4c60" stroke-linecap="round" stroke-linejoin="round" stroke-width="5"/>
  </g>
</svg>
