<svg xmlns="http://www.w3.org/2000/svg" width="111.947" height="72" viewBox="0 0 111.947 72">
  <g id="smb" transform="translate(-158.5 -180)" opacity="0.41">
    <g id="Group_34" data-name="Group 34" transform="translate(160 181.5)">
      <path id="Path_43" data-name="Path 43" d="M160,181.5c7.781,0,7.781,14.526,15.561,14.526s7.782-14.526,15.563-14.526,7.782,14.526,15.563,14.526,7.781-14.526,15.563-14.526,7.782,14.526,15.564,14.526S245.6,181.5,253.381,181.5s7.783,14.526,15.566,14.526" transform="translate(-160 -181.5)" fill="none" stroke="#9a9a9a" stroke-linecap="round" stroke-width="3"/>
      <path id="Path_44" data-name="Path 44" d="M160,181.5c7.781,0,7.781,14.526,15.561,14.526s7.782-14.526,15.563-14.526,7.782,14.526,15.563,14.526,7.781-14.526,15.563-14.526,7.782,14.526,15.564,14.526S245.6,181.5,253.381,181.5s7.783,14.526,15.566,14.526" transform="translate(-160 -181.5)" fill="none" stroke="#9a9a9a" stroke-linecap="round" stroke-miterlimit="10" stroke-width="3"/>
    </g>
    <g id="Group_35" data-name="Group 35" transform="translate(160 199.658)">
      <path id="Path_45" data-name="Path 45" d="M160,206.5c7.781,0,7.781,14.526,15.561,14.526s7.782-14.526,15.563-14.526,7.782,14.526,15.563,14.526,7.781-14.526,15.563-14.526,7.782,14.526,15.564,14.526S245.6,206.5,253.381,206.5s7.783,14.526,15.566,14.526" transform="translate(-160 -206.5)" fill="none" stroke="#9a9a9a" stroke-linecap="round" stroke-width="3"/>
      <path id="Path_46" data-name="Path 46" d="M160,206.5c7.781,0,7.781,14.526,15.561,14.526s7.782-14.526,15.563-14.526,7.782,14.526,15.563,14.526,7.781-14.526,15.563-14.526,7.782,14.526,15.564,14.526S245.6,206.5,253.381,206.5s7.783,14.526,15.566,14.526" transform="translate(-160 -206.5)" fill="none" stroke="#9a9a9a" stroke-linecap="round" stroke-miterlimit="10" stroke-width="3"/>
    </g>
    <g id="Group_36" data-name="Group 36" transform="translate(160 217.816)">
      <path id="Path_47" data-name="Path 47" d="M160,231.5c7.781,0,7.781,14.526,15.561,14.526s7.782-14.526,15.563-14.526,7.782,14.526,15.563,14.526,7.781-14.526,15.563-14.526,7.782,14.526,15.564,14.526S245.6,231.5,253.381,231.5s7.783,14.526,15.566,14.526" transform="translate(-160 -231.5)" fill="none" stroke="#9a9a9a" stroke-linecap="round" stroke-width="3"/>
      <path id="Path_48" data-name="Path 48" d="M160,231.5c7.781,0,7.781,14.526,15.561,14.526s7.782-14.526,15.563-14.526,7.782,14.526,15.563,14.526,7.781-14.526,15.563-14.526,7.782,14.526,15.564,14.526S245.6,231.5,253.381,231.5s7.783,14.526,15.566,14.526" transform="translate(-160 -231.5)" fill="none" stroke="#9a9a9a" stroke-linecap="round" stroke-miterlimit="10" stroke-width="3"/>
    </g>
    <g id="Group_37" data-name="Group 37" transform="translate(160 235.974)">
      <path id="Path_49" data-name="Path 49" d="M160,256.5c7.781,0,7.781,14.526,15.561,14.526s7.782-14.526,15.563-14.526,7.782,14.526,15.563,14.526,7.781-14.526,15.563-14.526,7.782,14.526,15.564,14.526S245.6,256.5,253.381,256.5s7.783,14.526,15.566,14.526" transform="translate(-160 -256.5)" fill="none" stroke="#9a9a9a" stroke-linecap="round" stroke-width="3"/>
      <path id="Path_50" data-name="Path 50" d="M160,256.5c7.781,0,7.781,14.526,15.561,14.526s7.782-14.526,15.563-14.526,7.782,14.526,15.563,14.526,7.781-14.526,15.563-14.526,7.782,14.526,15.564,14.526S245.6,256.5,253.381,256.5s7.783,14.526,15.566,14.526" transform="translate(-160 -256.5)" fill="none" stroke="#9a9a9a" stroke-linecap="round" stroke-miterlimit="10" stroke-width="3"/>
    </g>
  </g>
</svg>
